<svg width="125px" height="105px" viewBox="0 0 125 105" version="1.1" xmlns="http://www.w3.org/2000/svg">
    <path class="billey-shape-fill" fill="#FBF3F0" d="M66.0977669,1.95314107 C68.3620755,1.50276428 70.6487786,2.44999456 71.8932136,4.29622824 C72.6813351,5.46534104 73.9315228,6.9475396 76.4249126,8.7175437 C80.1947882,11.3937463 87.6862578,7.52548425 87.19625,12.8773062 C86.7245276,18.028831 85.0418592,20.9518074 99.2892729,23.1591593 C104.870637,24.0237427 107.409432,27.2236347 109.481641,31.944618 C111.597612,36.7651664 108.254875,42.6175366 113.855346,50.7725456 C117.355871,55.8702041 111.910724,60.1415885 114.194345,64.3927486 C117.625221,70.7806705 123.643791,68.1622234 124.896033,72.5646759 C125.838451,75.878329 120.050811,76.2557821 120.540819,85.5781537 C121.383592,101.596088 98.3433627,109.27544 91.2379412,102.576766 C84.3899536,96.1209765 77.5382679,103.587002 73.3281044,99.2695302 C68.270443,94.0831965 72.1163366,85.5633745 62.2352315,86.7632125 C58.9707728,87.1595285 51.381918,91.6640742 47.1553182,88.6240309 C41.413495,84.4944103 32.255588,92.6939514 27.3053791,84.377149 C20.4912914,72.9291 16.6131416,78.2573919 13.2597212,71.8251324 C10.6983261,66.9124084 10.8335148,63.1925217 11.8556485,57.649348 C12.9137367,51.9109333 19.0779733,46.9723457 16.1050538,45.0378257 C11.7966832,42.2342496 11.0946469,53.4765565 6.94920134,49.4982283 C4.53943127,47.1852829 6.49042254,45.1342794 9.10359208,41.3422469 C11.0157525,38.5674514 11.5271276,35.09745 7.75725195,31.6809259 C2.04768505,26.5064544 -2.75850058,15.5507863 1.83298561,9.22723177 C5.40315992,4.31061852 11.181143,7.36544103 13.4945552,5.12191902 C18.7753395,-4.73770529e-05 22.5782933,3.18739904 26.9433691,1.30013362 C32.8612664,-1.25841879 37.4872689,0.429132919 44.0854244,2.3409007 C53.5480196,5.08283191 61.9749213,2.77338687 66.0977669,1.95314107"></path>
</svg>
